<?xml version="1.0" encoding="utf-8"?>
<!-- Generator: Adobe Illustrator 16.0.0, SVG Export Plug-In . SVG Version: 6.00 Build 0)  -->
<!DOCTYPE svg PUBLIC "-//W3C//DTD SVG 1.1//EN" "http://www.w3.org/Graphics/SVG/1.1/DTD/svg11.dtd">
<svg version="1.1" id="Calque_1" xmlns="http://www.w3.org/2000/svg" xmlns:xlink="http://www.w3.org/1999/xlink" x="0px" y="0px"
	 width="278.986px" height="239.988px" viewBox="0 0 278.986 239.988" enable-background="new 0 0 278.986 239.988"
	 xml:space="preserve">
<g>
	<path fill-rule="evenodd" clip-rule="evenodd" fill="#47B2E0" d="M113.912,98.098c-18.048,10.843-35.53,21.41-53.136,31.778
		c-1.099,0.648-3.477,0.239-4.712-0.522c-4.626-2.853-9.006-6.083-13.512-9.123c-4.577-3.089-9.615-4.396-15.114-3.177
		c-8.379,1.858-11.543,8.575-7.296,15.86c4.76,8.16,9.763,16.187,14.749,24.218c6.965,11.218,13.987,22.401,21.034,33.57
		c3.299,5.226,4.822,5.651,10.559,3.29c11.402-4.696,12.82-7.219,11.145-19.365c-0.599-4.331-1.206-8.682-1.365-13.039
		c-0.05-1.381,0.967-3.553,2.126-4.111c17.978-8.649,36.059-17.093,54.398-25.717c5.432,5.254,8.53,11.655,10.316,18.573
		c5.425,21.002,10.612,42.065,15.84,63.117c3.477,14.005,6.124,15.136,20.068,10.003c8.231-3.03,11.993-7.961,11.993-16.728
		c0.003-31.94,0.689-63.882,0.619-95.822c-0.021-9.153,3.561-14.621,11.926-18.64c13.078-6.285,26.088-12.911,38.294-20.64
		c7.049-4.463,12.806-11.082,18.489-17.3c3.298-3.61,4.192-8.538,1.383-13.159c-2.918-4.8-7.825-5.722-12.998-5.448
		c-10.049,0.534-19.696,2.747-28.605,7.446c-13.132,6.923-26.322,13.752-39.252,21.022c-5.503,3.094-10.198,3.199-15.782,0.199
		c-29.781-16.003-59.696-31.774-89.588-47.587c-6.05-3.2-12.258-5.801-19.442-3.995C49.743,14.389,45.164,18.263,41.6,23.3
		c-2.761,3.903-0.622,7.205,2.349,9.851c6.257,5.57,12.779,10.858,19.058,16.409c13.652,12.074,27.333,24.125,40.752,36.444
		C107.466,89.407,110.288,93.724,113.912,98.098z"/>
</g>
</svg>
