<?xml version="1.0" encoding="utf-8"?>
<!-- Generator: Adobe Illustrator 16.0.0, SVG Export Plug-In . SVG Version: 6.00 Build 0)  -->
<!DOCTYPE svg PUBLIC "-//W3C//DTD SVG 1.1//EN" "http://www.w3.org/Graphics/SVG/1.1/DTD/svg11.dtd">
<svg version="1.1" id="Calque_1" xmlns="http://www.w3.org/2000/svg" xmlns:xlink="http://www.w3.org/1999/xlink" x="0px" y="0px"
	 width="240.896px" height="286.485px" viewBox="0 0 240.896 286.485" enable-background="new 0 0 240.896 286.485"
	 xml:space="preserve">
<g>
	<path fill-rule="evenodd" clip-rule="evenodd" fill="#224387" d="M147.528,124.864c4.223-5.749,8.42-11.517,12.691-17.229
		c0.801-1.07,1.089-3.171,3.119-2.465c1.511,0.526,1.974,1.994,2.331,3.564c2.507,11.044,2.403,22.112,0.542,33.218
		c-5.106,30.459-18.438,57.557-34.319,83.577c-10.587,17.346-22.489,33.773-35.388,49.477c-1.342,1.633-2.417,3.672-4.938,3.797
		c0.004-21.535,0.001-43.07,0.027-64.606c0.002-1.841-0.032-3.637-1.004-5.274c12.199-2.496,20.915-10.107,28.798-19.185
		c8.711-10.031,14.842-21.655,21.21-33.146c0.966-1.744,2.718-3.355,2.029-5.741l-0.093,0.121c0.402,0.378,0.774,0.372,1.113-0.084
		c3.914-4.445,2.504-10.257,3.747-15.377C148.203,132.168,149.861,128.418,147.528,124.864z"/>
	<path fill-rule="evenodd" clip-rule="evenodd" fill="#2667AF" d="M90.588,208.921c0.972,1.638,1.006,3.434,1.004,5.274
		c-0.026,21.536-0.022,43.071-0.027,64.606c-1.703,0.444-2.359-0.938-3.158-1.911c-22.114-26.916-41.628-55.51-56.216-87.274
		c-0.398-0.867-0.728-1.766-1.549-3.773c7.485,4.345,14.736,5.771,22.216,6.067c11.761,0.465,22.826-2.144,33.183-7.771
		c1.74-0.946,3.605-1.661,5.413-2.482c0.033,6.052,0.067,12.104,0.101,18.156c-4.648,3.546-10.668,3.807-16.38,6.518
		C80.603,208.306,85.1,211.452,90.588,208.921z"/>
	<path fill-rule="evenodd" clip-rule="evenodd" fill="#2667AF" d="M84.472,169.063c-0.786,0.823-1.418,1.981-2.379,2.418
		c-16.409,7.461-33.174,10.628-50.782,4.221c-4.212-1.533-6.697-3.918-8.067-8.448c-5.086-16.816-9.155-33.709-6.788-51.454
		c1.647-12.35,5.845-23.749,13.262-33.852c1.263,0.433,1.014,1.264,0.776,2.046c-5.627,18.503-0.07,32.615,16.687,42.378
		c0.571,0.333,1.093,0.75,1.638,1.129c0.172,1.795,0.313,3.592,0.521,5.38c1.865,16.078,16.026,30.97,32.446,34.138
		C82.681,167.701,83.577,168.382,84.472,169.063z"/>
	<path fill-rule="evenodd" clip-rule="evenodd" fill="#49B1DF" d="M177.57,66.621c1.34-4.306-2.994-4.361-4.954-6.204
		c-1.666-1.566-5.471-1.726-4.71-4.772c0.906-3.628,4.271-1.957,6.771-1.779c0.997,0.071,2.146-0.158,2.966,0.26
		c7.526,3.843,11.898-0.376,16.17-5.815c1.77-2.253,1.521-3.064-0.757-4.443c-8.665-5.246-17.261-10.608-25.785-16.078
		c-1.455-0.933-4.605-1.321-3.388-3.99c1.185-2.598,3.432-4.446,6.876-3.594c3.542,0.875,7.204,1.302,10.696,2.327
		c3.328,0.977,6.062,1.017,8.307-2.109c0.905-1.26,2.333-1.807,3.984-0.91c1.692,0.92,1.964,2.144,1.013,3.708
		c-1.313,2.157,0.635,2.204,1.727,2.446c3.727,0.827,7.498,1.454,11.241,2.209c2.87,0.58,5.062-0.225,7.034-2.502
		c4.372-5.048,9.23-9.494,15.607-12.063c2.231-0.899,4.441-2.396,6.36-0.29c1.902,2.086,1.071,4.75-0.124,7.012
		c-2.88,5.453-5.995,10.769-11.123,14.494c-3.328,2.417-4.658,5.223-3.027,9.384c0.951,2.427,0.94,5.215,1.528,7.804
		c0.471,2.073,0.256,4.552,4.142,3.433c2.117-0.61,4.659,2.032,2.216,4.104c-4.979,4.224-2.922,8.9-2.064,13.671
		c0.47,2.614,0.933,5.23,1.322,7.856c0.417,2.806-1.512,4.548-3.521,5.477c-2.499,1.155-2.815-1.865-3.623-3.124
		c-5.556-8.647-10.972-17.39-16.203-26.238c-1.399-2.367-2.189-2.232-4.372-0.862c-7.487,4.701-8.188,11.24-5.828,18.852
		c0.345,1.113,0.78,2.223,0.928,3.366c0.286,2.198-1.273,3.476-2.927,4.157c-1.706,0.703-2.051-1.194-2.715-2.242
		c-1.33-2.099-2.671-4.195-3.887-6.361c-0.838-1.493-1.74-2.003-3.601-1.704C178.875,72.906,177.526,71.62,177.57,66.621z"/>
	<path fill-rule="evenodd" clip-rule="evenodd" fill="#2667AF" d="M133.579,87.966c-4.179,3.121-8.446,6.062-13.789,6.839
		c-3.293-5.797-9.048-8.115-14.881-9.871c-11.622-3.498-23.106-3.731-33.829,3.183c-2.598,2.875-6.938,2.083-9.756,5.145
		c-4.036,4.384-7.337,9.112-10.018,14.358c-8.412-11-7.749-25.395,1.729-37.714c5.915-7.689,13.54-13.426,22.224-17.305
		c4.936-2.205,10.573-3.619,16.304-2.606c0.007,4.656,0.196,9.322-0.04,13.966c-0.176,3.47,0.665,4.7,4.551,5.091
		C110.891,70.539,123.935,76.002,133.579,87.966z"/>
	<path fill-rule="evenodd" clip-rule="evenodd" fill="#224387" d="M133.579,87.966c-9.645-11.964-22.688-17.427-37.506-18.916
		c-3.886-0.391-4.727-1.621-4.551-5.091c0.235-4.644,0.046-9.31,0.04-13.966c12.755-0.043,24.568,2.619,35.897,9.166
		c6.438,3.721,12.181,7.945,17.701,12.726c4.2,3.637,4.281,5.288-0.009,8.429C141.418,83.045,137.874,86.079,133.579,87.966z"/>
	<path fill-rule="evenodd" clip-rule="evenodd" fill="#49B1DF" d="M71.08,88.117c10.723-6.914,22.207-6.68,33.829-3.183
		c5.833,1.756,11.588,4.074,14.881,9.871c-2.604,4.236-7.859,4.117-12.116,7.013c4.105,0.713,7.077-0.798,10.16-1.571
		c-1.925,2.816-3.628,5.867-7.778,5.742c-1.149-0.034-2.41,0.288-2.06,2.019c0.285,1.412,1.376,1.728,2.567,1.894
		c1.726,0.241,2.588-0.986,3.655-2.027c2.377-2.317,5.039-2.839,7.897-0.771c-0.357,3.672-3.798,2.782-5.79,3.519
		c-12.217,4.521-24.525,8.854-37.79,9.099c-2.164,0.04-4.308-0.018-6.316-0.958c1.14-3.895,3.227-6.848,7.251-8.377
		c1.413-0.537,3.129-1.894,3.509-3.219c0.985-3.441,3.374-4.145,6.326-4.286c1.219-0.059,2.552-0.206,2.733-1.543
		c0.116-0.858-0.403-2.067-1.048-2.7c-0.855-0.839-2.209-0.936-3.163-0.014c-2.23,2.155-5.04,1.093-7.559,1.383
		c-2.137,0.247-4.111-1.397-4.004-3.342c0.072-1.305,1.778-2.95,4.04-2.8c2.274,0.151,4.835,0.823,6.732-0.864
		c1.755-1.56,3.048-1.544,4.637,0.038c1.06,1.056,2.664,1.385,3.43,0.086c0.861-1.459-0.186-2.341-1.689-3.358
		c-3.269-2.21-7.059,0.086-9.244-0.718C79.595,87.366,75.438,88.11,71.08,88.117z"/>
	<path fill-rule="evenodd" clip-rule="evenodd" fill="#2667AF" d="M147.528,124.864c2.333,3.554,0.675,7.305-0.136,10.645
		c-1.243,5.12,0.167,10.932-3.747,15.377c-0.262-0.207-0.524-0.414-0.786-0.622c-0.109,0.235-0.218,0.47-0.327,0.705l0.093-0.121
		c-4.662,6.333-9.323,12.666-13.985,18.999c-0.6-0.709-1.14-0.354-1.663,0.103c-6.769,5.914-14.895,9.116-23.416,11.316
		c-3.358,0.867-7.051,1.994-10.25-0.834c19.326-13.203,34.556-30.522,49.103-48.57C144.243,129.592,144.511,126.213,147.528,124.864
		z"/>
	<path fill-rule="evenodd" clip-rule="evenodd" fill="#49B1DF" d="M125.631,140.194c-1.422,3.884-5.167,5.479-7.991,7.932
		c-8.172,7.1-16.978,13.38-26.27,18.917c-1.555,0.926-3.231,3.324-5.707,1.495c1.021-1.331,0.927-2.625,0.223-4.142
		c-0.655-1.413-0.644-3.457,0.932-3.911c3.731-1.074,4.388-4.524,6.081-7.1c1.044-1.589,1.649-2.886,3.679-3.944
		c3.08-1.605,2.563-5.734,3.033-8.836c0.387-2.555-1.903-3.764-4.072-4.802c-3.102-1.486-6.966-2.026-8.277-6.01
		c6.007-1.911,12.014-3.822,18.021-5.734c1.007,7.447,1.731,8.115,9.107,7.549c3.791-0.291,6.96-0.105,8.347,4.414
		C123.183,137.473,123.271,139.806,125.631,140.194z"/>
	<path fill-rule="evenodd" clip-rule="evenodd" fill="#B6D884" d="M71.08,88.117c4.357-0.007,8.515-0.751,13.091,0.935
		c2.185,0.805,5.975-1.492,9.244,0.718c1.503,1.017,2.551,1.899,1.689,3.358c-0.766,1.298-2.37,0.969-3.43-0.086
		c-1.588-1.582-2.882-1.597-4.637-0.038c-1.897,1.687-4.458,1.015-6.732,0.864c-2.261-0.15-3.968,1.495-4.04,2.8
		c-0.107,1.945,1.868,3.588,4.004,3.342c2.519-0.291,5.329,0.772,7.559-1.383c0.954-0.922,2.307-0.825,3.163,0.014
		c0.645,0.633,1.164,1.841,1.048,2.7c-0.181,1.337-1.514,1.484-2.733,1.543c-2.952,0.141-5.341,0.845-6.326,4.286
		c-0.379,1.326-2.096,2.683-3.509,3.219c-4.024,1.529-6.111,4.482-7.251,8.377c-8.061-1.677-16.078-3.424-20.914-11.145
		c2.68-5.246,5.981-9.974,10.017-14.358C64.142,90.2,68.482,90.993,71.08,88.117z"/>
	<path fill-rule="evenodd" clip-rule="evenodd" fill="#49B1DF" d="M81.786,167.02c-16.42-3.167-30.581-18.06-32.446-34.138
		c-0.208-1.789-0.349-3.585-0.521-5.38c8.03,2.497,16.13,4.615,24.636,4.525c-4.457,7.633-4.42,7.598,2.006,14.367
		c0.834,0.878,1.986,1.669,2.083,3.218C77.918,155.659,79.94,161.322,81.786,167.02z"/>
	<path fill-rule="evenodd" clip-rule="evenodd" fill="#B6D884" d="M81.786,167.02c-1.845-5.698-3.867-11.361-4.242-17.407
		c-0.096-1.549-1.249-2.34-2.083-3.218c-6.426-6.769-6.462-6.734-2.006-14.367c4.604-0.744,9.208-1.488,13.81-2.232
		c1.309,3.983,5.173,4.523,8.275,6.009c2.169,1.039,4.459,2.248,4.072,4.802c-0.47,3.102,0.047,7.231-3.033,8.836
		c-2.03,1.058-2.635,2.355-3.679,3.944c-1.693,2.576-2.35,6.026-6.081,7.1c-1.576,0.454-1.587,2.498-0.932,3.911
		c0.704,1.517,0.797,2.811-0.223,4.142c-0.397,0.173-0.794,0.349-1.191,0.524C83.577,168.382,82.681,167.701,81.786,167.02z"/>
	<path fill-rule="evenodd" clip-rule="evenodd" fill="#B6D884" d="M125.631,140.194c-2.36-0.389-2.448-2.722-2.893-4.171
		c-1.387-4.519-4.556-4.704-8.347-4.414c-7.376,0.565-8.101-0.103-9.107-7.549c3.957-4.02,9.808-4.609,14.233-7.852
		c1.783-1.306,4.079-1.913,6.142-2.839c3.15-0.063,6.282-0.083,8.103,3.209c0.012,5.683,0.023,11.365,0.035,17.048
		C131.57,136.432,129.419,139.332,125.631,140.194z"/>
	<path fill-rule="evenodd" clip-rule="evenodd" fill="#224387" d="M93.311,180.433c3.199,2.828,6.893,1.701,10.25,0.834
		c8.521-2.201,16.647-5.402,23.416-11.316c0.523-0.457,1.063-0.812,1.663-0.102c-2.877,4.1-6.263,7.771-9.871,11.205
		c-8.071,7.683-16.517,14.869-27.215,18.76c-0.034-6.052-0.067-12.104-0.101-18.156C92.073,181.249,92.692,180.841,93.311,180.433z"
		/>
	<path fill-rule="evenodd" clip-rule="evenodd" fill="#2667AF" d="M133.762,116.579c-1.82-3.292-4.952-3.273-8.103-3.209
		c5.931-3.841,11.863-7.683,17.796-11.525c2.388,5.458,4.608,10.957,4.107,17.108c-3.635,4.011-7.271,8.021-10.907,12.033
		c-2.42-0.911-1.925-2.994-2.051-4.898C134.394,122.913,135.391,119.625,133.762,116.579z"/>
	<path fill-rule="evenodd" clip-rule="evenodd" fill="#224387" d="M147.562,118.952c0.501-6.151-1.719-11.65-4.107-17.108
		c3.708-2.951,7.494-5.813,11.066-8.92c0.84-0.73,3.042-0.95,2.061-3.049l-0.117,0.11c4.872,1.556,7.834,9.862,4.712,13.623
		C156.81,108.87,152.674,114.348,147.562,118.952z"/>
	<path fill-rule="evenodd" clip-rule="evenodd" fill="#224387" d="M156.582,89.875c-4.553,1.753-8.309,4.879-12.505,7.246
		c-1.027,0.579-1.821,2.127-3.362,0.962c-0.291-2.375-1.898-4.091-3.03-6.045c4.077-2.638,8.101-5.363,12.262-7.859
		c1.225-0.734,2.412-3.396,3.927-1.632c1.67,1.944,4.689,3.968,2.591,7.438C156.465,89.986,156.582,89.875,156.582,89.875z"/>
	<path fill-rule="evenodd" clip-rule="evenodd" fill="#B6D884" d="M122.116,107.105c-2.858-2.069-5.52-1.547-7.897,0.771
		c-1.067,1.041-1.93,2.268-3.655,2.027c-1.191-0.166-2.282-0.482-2.567-1.894c-0.35-1.731,0.911-2.053,2.06-2.019
		c4.149,0.125,5.853-2.926,7.778-5.742c2.553-0.923,5.104-1.843,7.653-2.761c0.505,3.023,3.287,4.652,4.45,7.272
		C127.47,106.006,124.9,106.911,122.116,107.105z"/>
	<path fill-rule="evenodd" clip-rule="evenodd" fill="#2667AF" d="M129.937,104.759c-1.163-2.62-3.944-4.249-4.45-7.272
		c4.066-1.817,8.131-3.632,12.197-5.447c1.132,1.954,2.739,3.669,3.03,6.044c0,0-0.025-0.163-0.025-0.163
		c-0.318,0.49-0.637,0.979-0.955,1.468C136.796,101.776,133.232,103.022,129.937,104.759z"/>
	<path fill-rule="evenodd" clip-rule="evenodd" fill="#82BAD5" d="M133.762,116.579c1.629,3.046,0.632,6.333,0.842,9.507
		c0.126,1.904-0.369,3.987,2.051,4.898c-0.645,1.216-1.481,2.227-2.861,2.645C133.785,127.944,133.773,122.262,133.762,116.579z"/>
	<rect x="196.297" y="134.563" fill-rule="evenodd" clip-rule="evenodd" fill="none" width="320.499" height="130.5"/>
	<text transform="matrix(1 0 0 1 196.2974 174.1963)" display="none"><tspan x="0" y="0" display="inline" fill="#224387" font-family="'SegoePrint-Bold'" font-size="48">LRC</tspan><tspan x="98.484" y="0" display="inline" fill="#49B1DF" font-family="'SegoePrint-Bold'" font-size="48"> </tspan><tspan x="0" y="57.6" display="inline" fill="#49B1DF" font-family="'SegoePrint-Bold'" font-size="48">VOYAGES</tspan></text>
</g>
</svg>
