<?xml version="1.0" encoding="utf-8"?>
<!-- Generator: Adobe Illustrator 16.0.0, SVG Export Plug-In . SVG Version: 6.00 Build 0)  -->
<!DOCTYPE svg PUBLIC "-//W3C//DTD SVG 1.1//EN" "http://www.w3.org/Graphics/SVG/1.1/DTD/svg11.dtd">
<svg version="1.1" id="Calque_1" xmlns="http://www.w3.org/2000/svg" xmlns:xlink="http://www.w3.org/1999/xlink" x="0px" y="0px"
	 width="218.989px" height="191.976px" viewBox="0 0 218.989 191.976" enable-background="new 0 0 218.989 191.976"
	 xml:space="preserve">
<g>
	<path fill-rule="evenodd" clip-rule="evenodd" fill="#FFFFFF" d="M15.139,95.238c0-31.746,0-63.492,0-95.238
		c64.242,0,128.484,0,192.726,0c0,63.992,0,127.983,0,191.976c-64.242,0-128.483,0-192.726,0c0-30.996,0-61.992,0-92.988
		c2.217,2.48,4.483,4.918,6.641,7.449c3.326,3.902,4.783,4.09,8.672,0.85c19.576-16.31,39.144-32.63,58.718-48.942
		c7.268-6.057,14.548-12.099,21.968-18.269c9.16,7.631,18.074,15.051,26.982,22.479c18.035,15.038,36.061,30.086,54.105,45.112
		c3.248,2.704,4.932,2.575,7.624-0.524c1.884-2.168,3.73-4.372,5.521-6.617c2.607-3.267,2.47-4.807-0.797-7.555
		c-7.074-5.949-14.108-11.953-21.355-17.686c-2.514-1.988-3.461-4.042-3.422-7.24c0.177-14.116,0.064-28.235,0.084-42.354
		c0.004-3.046-0.652-5.691-4.316-5.754c-7.368-0.127-14.741-0.101-22.11-0.017c-2.862,0.032-4.292,1.67-4.205,4.586
		c0.044,1.498-0.004,2.998-0.004,4.498c-0.001,5.661,0,11.323,0,17.571c-1.36-0.959-2.094-1.403-2.745-1.946
		c-8.056-6.723-16.115-13.44-24.14-20.2c-7.826-6.592-14.594-6.603-22.42-0.05c-9.864,8.26-19.775,16.462-29.646,24.712
		C51.902,64.466,33.523,79.855,15.139,95.238z M126.229,172.438c1.668,0,2.886,0,4.104,0c13.117,0,26.233,0.004,39.35-0.002
		c7.428-0.003,10.174-2.707,10.184-10.123c0.021-17.239-0.038-34.478,0.057-51.716c0.014-2.472-0.681-4.163-2.621-5.753
		c-21.343-17.497-42.633-35.059-63.888-52.663c-1.614-1.336-2.685-1.593-4.438-0.139c-21.341,17.695-42.768,35.286-64.08,53.016
		c-1.248,1.039-2.393,3.033-2.407,4.594c-0.167,17.862-0.147,35.727-0.083,53.589c0.022,6.238,3.065,9.18,9.221,9.19
		c13.616,0.021,27.232,0.012,40.849-0.003c1.08-0.001,2.16-0.145,3.687-0.254c0-15.256,0-30.28,0-45.194c10.272,0,20.073,0,30.066,0
		C126.229,142.104,126.229,156.95,126.229,172.438z"/>
	<path fill-rule="evenodd" clip-rule="evenodd" fill="#F8BE32" d="M15.139,95.238c18.384-15.382,36.763-30.772,55.155-46.145
		c9.871-8.25,19.783-16.452,29.646-24.712c7.827-6.553,14.594-6.542,22.42,0.05c8.025,6.759,16.084,13.477,24.14,20.2
		c0.651,0.543,1.384,0.987,2.745,1.946c0-6.249-0.001-11.91,0-17.571c0-1.5,0.048-3,0.004-4.498
		c-0.086-2.916,1.343-4.554,4.205-4.586c7.369-0.084,14.742-0.11,22.11,0.017c3.665,0.063,4.32,2.708,4.316,5.754
		c-0.02,14.118,0.093,28.237-0.084,42.354c-0.04,3.199,0.908,5.252,3.422,7.24c7.247,5.732,14.281,11.737,21.355,17.686
		c3.267,2.748,3.404,4.288,0.797,7.555c-1.792,2.245-3.637,4.449-5.521,6.617c-2.692,3.099-4.376,3.228-7.624,0.524
		c-18.044-15.026-36.07-30.074-54.105-45.112c-8.908-7.427-17.822-14.847-26.982-22.479c-7.42,6.17-14.7,12.212-21.968,18.269
		c-19.575,16.312-39.142,32.632-58.718,48.942c-3.889,3.24-5.347,3.052-8.672-0.85c-2.158-2.531-4.424-4.969-6.641-7.449
		C15.139,97.738,15.139,96.487,15.139,95.238z"/>
	<path fill-rule="evenodd" clip-rule="evenodd" fill="#F8BE32" d="M126.229,172.438c0-15.488,0-30.334,0-45.458
		c-9.993,0-19.794,0-30.066,0c0,14.914,0,29.938,0,45.194c-1.526,0.109-2.606,0.253-3.687,0.254
		c-13.616,0.015-27.232,0.024-40.849,0.003c-6.156-0.01-9.198-2.952-9.221-9.19c-0.064-17.863-0.084-35.728,0.083-53.589
		c0.015-1.561,1.159-3.555,2.407-4.594c21.312-17.73,42.739-35.321,64.08-53.016c1.753-1.454,2.824-1.197,4.438,0.139
		c21.255,17.604,42.545,35.166,63.888,52.663c1.939,1.591,2.634,3.282,2.621,5.753c-0.094,17.238-0.036,34.477-0.057,51.716
		c-0.009,7.416-2.756,10.12-10.184,10.123c-13.117,0.006-26.233,0.002-39.35,0.002C129.116,172.438,127.898,172.438,126.229,172.438
		z"/>
</g>
</svg>
